# xmcd
#
# Track frame offsets: 
#        150
#        27610
#        41102
#        74687
#        96780
#        109867
#        125790
#        147350
#        174032
#        187360
#        210540
#        232832
#        256402
#        271890
#        307190
#
# Disc length: 4277 seconds
#
# Revision: 3
# Processed by: cddbd v1.5.2PL0 Copyright (c) Steve Scherf et al.
# Submitted via: ExactAudioCopy v0.95b4
#
DISCID=e810b30f
DTITLE=David Bromberg - The Player: A Retrospective
DYEAR=1900
DGENRE=Blues
TTITLE0=Sharon
TTITLE1=The Holdup (live)
TTITLE2=Mr. Bojangles (live)
TTITLE3=Suffer To Sing The Blues
TTITLE4=Mr. Blue
TTITLE5=The Joke's On Me
TTITLE6=Sammy's Song
TTITLE7=Yankee's Revenge (medley)
TTITLE8=Wallflower (live)
TTITLE9=Statesboro Blues/Church Bell Blues (live)
TTITLE10=Nobody's
TTITLE11=The Main Street Main
TTITLE12=I Like To Sleep Late In The Morning
TTITLE13=Dehlia (live)
TTITLE14=The Holdup
EXTD=
EXTT0=
EXTT1=
EXTT2=
EXTT3=
EXTT4=
EXTT5=
EXTT6=
EXTT7=
EXTT8=
EXTT9=
EXTT10=
EXTT11=
EXTT12=
EXTT13=
EXTT14=
PLAYORDER=
